<?xml version="1.0" encoding="us-ascii" standalone="no"?><svg xmlns="http://www.w3.org/2000/svg" xmlns:xlink="http://www.w3.org/1999/xlink" contentStyleType="text/css" height="782px" preserveAspectRatio="none" style="width:731px;height:782px;background:#FFFFFF;" version="1.1" viewBox="0 0 731 782" width="731px" zoomAndPan="magnify"><defs/><g><!--cluster Backend--><g id="cluster_Backend"><polygon fill="none" points="16,116,26,106,714,106,714,755,704,765,16,765,16,116" style="stroke:#181818;stroke-width:1.0;"/><line style="stroke:#181818;stroke-width:1.0;" x1="704" x2="714" y1="116" y2="106"/><line style="stroke:#181818;stroke-width:1.0;" x1="16" x2="704" y1="116" y2="116"/><line style="stroke:#181818;stroke-width:1.0;" x1="704" x2="704" y1="116" y2="765"/><text fill="#000000" font-family="sans-serif" font-size="14" font-weight="bold" lengthAdjust="spacing" textLength="68" x="327" y="131.9951">Backend</text></g><!--entity WebServer--><g id="elem_WebServer"><rect fill="#F1F1F1" height="36.2969" rx="2.5" ry="2.5" style="stroke:#181818;stroke-width:0.5;" width="100" x="317" y="265"/><rect fill="#F1F1F1" height="5" style="stroke:#181818;stroke-width:0.5;" width="10" x="312" y="270"/><rect fill="#F1F1F1" height="5" style="stroke:#181818;stroke-width:0.5;" width="10" x="312" y="291.2969"/><text fill="#000000" font-family="sans-serif" font-size="14" lengthAdjust="spacing" textLength="80" x="327" y="287.9951">WebServer</text></g><!--entity PUT--><g id="elem_PUT"><ellipse cx="270" cy="175" fill="#F1F1F1" rx="8" ry="8" style="stroke:#181818;stroke-width:0.5;"/><text fill="#000000" font-family="sans-serif" font-size="14" lengthAdjust="spacing" textLength="27" x="256.5" y="204.9951">PUT</text></g><!--entity DELETE--><g id="elem_DELETE"><ellipse cx="367" cy="175" fill="#F1F1F1" rx="8" ry="8" style="stroke:#181818;stroke-width:0.5;"/><text fill="#000000" font-family="sans-serif" font-size="14" lengthAdjust="spacing" textLength="55" x="339.5" y="204.9951">DELETE</text></g><!--entity POST--><g id="elem_POST"><ellipse cx="464" cy="175" fill="#F1F1F1" rx="8" ry="8" style="stroke:#181818;stroke-width:0.5;"/><text fill="#000000" font-family="sans-serif" font-size="14" lengthAdjust="spacing" textLength="38" x="445" y="204.9951">POST</text></g><!--entity Mediator--><g id="elem_Mediator"><rect fill="#F1F1F1" height="36.2969" rx="2.5" ry="2.5" style="stroke:#181818;stroke-width:0.5;" width="84" x="325" y="497"/><rect fill="#F1F1F1" height="5" style="stroke:#181818;stroke-width:0.5;" width="10" x="320" y="502"/><rect fill="#F1F1F1" height="5" style="stroke:#181818;stroke-width:0.5;" width="10" x="320" y="523.2969"/><text fill="#000000" font-family="sans-serif" font-size="14" lengthAdjust="spacing" textLength="64" x="335" y="519.9951">Mediator</text></g><!--entity mediateResourceStorage--><g id="elem_mediateResourceStorage"><ellipse cx="131" cy="407" fill="#F1F1F1" rx="8" ry="8" style="stroke:#181818;stroke-width:0.5;"/><text fill="#000000" font-family="sans-serif" font-size="14" lengthAdjust="spacing" textLength="183" x="39.5" y="436.9951">mediateResourceStorage</text></g><!--entity mediateResourceRemoval--><g id="elem_mediateResourceRemoval"><ellipse cx="367" cy="407" fill="#F1F1F1" rx="8" ry="8" style="stroke:#181818;stroke-width:0.5;"/><text fill="#000000" font-family="sans-serif" font-size="14" lengthAdjust="spacing" textLength="188" x="273" y="436.9951">mediateResourceRemoval</text></g><!--entity mediateResourceFetch--><g id="elem_mediateResourceFetch"><ellipse cx="371" cy="731" fill="#F1F1F1" rx="8" ry="8" style="stroke:#181818;stroke-width:0.5;"/><text fill="#000000" font-family="sans-serif" font-size="14" lengthAdjust="spacing" textLength="167" x="287.5" y="760.9951">mediateResourceFetch</text></g><!--entity mediateImageRendering--><g id="elem_mediateImageRendering"><ellipse cx="601" cy="407" fill="#F1F1F1" rx="8" ry="8" style="stroke:#181818;stroke-width:0.5;"/><text fill="#000000" font-family="sans-serif" font-size="14" lengthAdjust="spacing" textLength="178" x="512" y="436.9951">mediateImageRendering</text></g><!--entity Res--><g id="elem_Res"><rect fill="#F1F1F1" height="36.2969" rx="2.5" ry="2.5" style="stroke:#181818;stroke-width:0.5;" width="191" x="410.5" y="605"/><rect fill="#F1F1F1" height="5" style="stroke:#181818;stroke-width:0.5;" width="10" x="405.5" y="610"/><rect fill="#F1F1F1" height="5" style="stroke:#181818;stroke-width:0.5;" width="10" x="405.5" y="631.2969"/><text fill="#000000" font-family="sans-serif" font-size="14" lengthAdjust="spacing" textLength="171" x="420.5" y="627.9951">ResourceStorageHelper</text></g><!--entity store--><g id="elem_store"><ellipse cx="453" cy="515" fill="#F1F1F1" rx="8" ry="8" style="stroke:#181818;stroke-width:0.5;"/><text fill="#000000" font-family="sans-serif" font-size="14" lengthAdjust="spacing" textLength="38" x="434" y="544.9951">store</text></g><!--entity remove--><g id="elem_remove"><ellipse cx="559" cy="515" fill="#F1F1F1" rx="8" ry="8" style="stroke:#181818;stroke-width:0.5;"/><text fill="#000000" font-family="sans-serif" font-size="14" lengthAdjust="spacing" textLength="55" x="531.5" y="544.9951">remove</text></g><!--entity fetch--><g id="elem_fetch"><ellipse cx="506" cy="515" fill="#F1F1F1" rx="8" ry="8" style="stroke:#181818;stroke-width:0.5;"/><text fill="#000000" font-family="sans-serif" font-size="14" lengthAdjust="spacing" textLength="39" x="486.5" y="544.9951">fetch</text></g><!--entity OBJParser--><g id="elem_OBJParser"><rect fill="#F1F1F1" height="36.2969" rx="2.5" ry="2.5" style="stroke:#181818;stroke-width:0.5;" width="90" x="147" y="497"/><rect fill="#F1F1F1" height="5" style="stroke:#181818;stroke-width:0.5;" width="10" x="142" y="502"/><rect fill="#F1F1F1" height="5" style="stroke:#181818;stroke-width:0.5;" width="10" x="142" y="523.2969"/><text fill="#000000" font-family="sans-serif" font-size="14" lengthAdjust="spacing" textLength="70" x="157" y="519.9951">OBJParser</text></g><!--entity parse--><g id="elem_parse"><ellipse cx="281" cy="515" fill="#F1F1F1" rx="8" ry="8" style="stroke:#181818;stroke-width:0.5;"/><text fill="#000000" font-family="sans-serif" font-size="14" lengthAdjust="spacing" textLength="40" x="261" y="544.9951">parse</text></g><!--entity Raytracer--><g id="elem_Raytracer"><rect fill="#FFC0CB" height="36.2969" rx="2.5" ry="2.5" style="stroke:#181818;stroke-width:0.5;" width="90" x="237" y="713"/><rect fill="#FFC0CB" height="5" style="stroke:#181818;stroke-width:0.5;" width="10" x="232" y="718"/><rect fill="#FFC0CB" height="5" style="stroke:#181818;stroke-width:0.5;" width="10" x="232" y="739.2969"/><text fill="#000000" font-family="sans-serif" font-size="14" lengthAdjust="spacing" textLength="70" x="247" y="735.9951">Raytracer</text></g><!--entity renderImage--><g id="elem_renderImage"><ellipse cx="281" cy="623" fill="#F1F1F1" rx="8" ry="8" style="stroke:#181818;stroke-width:0.5;"/><text fill="#000000" font-family="sans-serif" font-size="14" lengthAdjust="spacing" textLength="92" x="235" y="652.9951">renderImage</text></g><!--entity Editor--><g id="elem_Editor"><rect fill="#ADD8E6" height="36.2969" rx="2.5" ry="2.5" style="stroke:#181818;stroke-width:0.5;" width="64" x="335" y="7"/><rect fill="#ADD8E6" height="5" style="stroke:#181818;stroke-width:0.5;" width="10" x="330" y="12"/><rect fill="#ADD8E6" height="5" style="stroke:#181818;stroke-width:0.5;" width="10" x="330" y="33.2969"/><text fill="#000000" font-family="sans-serif" font-size="14" lengthAdjust="spacing" textLength="44" x="345" y="29.9951">Editor</text></g><!--link PUT to WebServer--><g id="link_PUT_WebServer"><path d="M277.611,184.318 C293.422,201.595 330.101,241.677 351.233,264.77 " fill="none" id="PUT-WebServer" style="stroke:#181818;stroke-width:1.0;"/></g><!--link DELETE to WebServer--><g id="link_DELETE_WebServer"><path d="M367,184.318 C367,201.595 367,241.677 367,264.77 " fill="none" id="DELETE-WebServer" style="stroke:#181818;stroke-width:1.0;"/></g><!--link POST to WebServer--><g id="link_POST_WebServer"><path d="M456.389,184.318 C440.578,201.595 403.899,241.677 382.767,264.77 " fill="none" id="POST-WebServer" style="stroke:#181818;stroke-width:1.0;"/></g><!--link Editor to PUT--><g id="link_Editor_PUT"><path d="M342.733,43.195 C332.544,51.337 321.185,61.74 313,73 C290.701,103.677 278.6735,141.9045 273.7165,159.9845 " fill="none" id="Editor-to-PUT" style="stroke:#181818;stroke-width:1.0;stroke-dasharray:7.0,7.0;"/><polygon fill="#181818" points="272.13,165.771,278.3674,158.149,273.4521,160.949,270.6521,156.0337,272.13,165.771" style="stroke:#181818;stroke-width:1.0;"/><text fill="#000000" font-family="sans-serif" font-size="13" lengthAdjust="spacing" textLength="44" x="314" y="86.0669">obj/mtl</text></g><!--link Editor to DELETE--><g id="link_Editor_DELETE"><path d="M367,43.267 C367,75.293 367,136.748 367,159.956 " fill="none" id="Editor-to-DELETE" style="stroke:#181818;stroke-width:1.0;stroke-dasharray:7.0,7.0;"/><polygon fill="#181818" points="367,165.956,371,156.956,367,160.956,363,156.956,367,165.956" style="stroke:#181818;stroke-width:1.0;"/><text fill="#000000" font-family="sans-serif" font-size="13" lengthAdjust="spacing" textLength="44" x="368" y="86.0669">obj/mtl</text></g><!--link Editor to POST--><g id="link_Editor_POST"><path d="M389.992,43.192 C399.849,51.407 410.927,61.869 419,73 C441.429,103.923 454.4401,142.0588 459.8961,160.0648 " fill="none" id="Editor-to-POST" style="stroke:#181818;stroke-width:1.0;stroke-dasharray:7.0,7.0;"/><polygon fill="#181818" points="461.636,165.807,462.8542,156.0338,460.1861,161.0219,455.198,158.3537,461.636,165.807" style="stroke:#181818;stroke-width:1.0;"/><text fill="#000000" font-family="sans-serif" font-size="13" lengthAdjust="spacing" textLength="39" x="429" y="86.0669">config</text></g><!--link mediateResourceStorage to Mediator--><g id="link_mediateResourceStorage_Mediator"><path d="M140.251,412.155 C171.272,426.088 272.791,471.686 328.89,496.883 " fill="none" id="mediateResourceStorage-Mediator" style="stroke:#181818;stroke-width:1.0;"/></g><!--link mediateResourceRemoval to Mediator--><g id="link_mediateResourceRemoval_Mediator"><path d="M367,416.318 C367,433.595 367,473.677 367,496.77 " fill="none" id="mediateResourceRemoval-Mediator" style="stroke:#181818;stroke-width:1.0;"/></g><!--link mediateResourceFetch to Mediator--><g id="link_mediateResourceFetch_Mediator"><path d="M370.843,721.5749 C370.248,689.7677 368.133,576.593 367.321,533.151 " fill="none" id="mediateResourceFetch-Mediator" style="stroke:#181818;stroke-width:1.0;"/></g><!--link mediateImageRendering to Mediator--><g id="link_mediateImageRendering_Mediator"><path d="M591.827,412.155 C561.069,426.088 460.411,471.686 404.787,496.883 " fill="none" id="mediateImageRendering-Mediator" style="stroke:#181818;stroke-width:1.0;"/></g><!--link WebServer to mediateResourceStorage--><g id="link_WebServer_mediateResourceStorage"><path d="M333.937,301.092 C279.135,329.422 177.668,381.8758 145.631,398.4368 " fill="none" id="WebServer-to-mediateResourceStorage" style="stroke:#181818;stroke-width:1.0;"/><polygon fill="#181818" points="140.301,401.192,150.1328,400.6125,144.7426,398.896,146.4591,393.5058,140.301,401.192" style="stroke:#181818;stroke-width:1.0;"/><text fill="#000000" font-family="sans-serif" font-size="13" lengthAdjust="spacing" textLength="25" x="271" y="344.0669">PUT</text></g><!--link WebServer to mediateResourceRemoval--><g id="link_WebServer_mediateResourceRemoval"><path d="M367,301.221 C367,327.888 367,372.148 367,391.815 " fill="none" id="WebServer-to-mediateResourceRemoval" style="stroke:#181818;stroke-width:1.0;"/><polygon fill="#181818" points="367,397.815,371,388.815,367,392.815,363,388.815,367,397.815" style="stroke:#181818;stroke-width:1.0;"/><text fill="#000000" font-family="sans-serif" font-size="13" lengthAdjust="spacing" textLength="49" x="368" y="344.0669">DELETE</text></g><!--link WebServer to mediateImageRendering--><g id="link_WebServer_mediateImageRendering"><path d="M400.03,301.221 C454.454,329.596 554.7906,381.9082 586.4796,398.4292 " fill="none" id="WebServer-to-mediateImageRendering" style="stroke:#181818;stroke-width:1.0;"/><polygon fill="#181818" points="591.8,401.203,585.6686,393.4955,587.3664,398.8915,581.9703,400.5893,591.8,401.203" style="stroke:#181818;stroke-width:1.0;"/><text fill="#000000" font-family="sans-serif" font-size="13" lengthAdjust="spacing" textLength="34" x="485" y="344.0669">POST</text></g><!--link store to Res--><g id="link_store_Res"><path d="M457.159,524.318 C465.797,541.595 485.839,581.677 497.385,604.77 " fill="none" id="store-Res" style="stroke:#181818;stroke-width:1.0;"/></g><!--link remove to Res--><g id="link_remove_Res"><path d="M554.841,524.318 C546.203,541.595 526.161,581.677 514.615,604.77 " fill="none" id="remove-Res" style="stroke:#181818;stroke-width:1.0;"/></g><!--link fetch to Res--><g id="link_fetch_Res"><path d="M506,524.318 C506,541.595 506,581.677 506,604.77 " fill="none" id="fetch-Res" style="stroke:#181818;stroke-width:1.0;"/></g><!--link Mediator to store--><g id="link_Mediator_store"><path d="M409.328,515 C420.815,515 426.301,515 437.788,515 " fill="none" id="Mediator-to-store" style="stroke:#181818;stroke-width:1.0;"/><polygon fill="#181818" points="443.788,515,434.788,511,438.788,515,434.788,519,443.788,515" style="stroke:#181818;stroke-width:1.0;"/></g><!--link Mediator to remove--><g id="link_Mediator_remove"><path d="M388.445,496.947 C403.176,485.773 423.752,472.457 444.5,466.5 C474.83,457.792 486.685,453.637 515.5,466.5 C533.471,474.522 544.0606,488.8771 550.9526,500.5611 " fill="none" id="Mediator-to-remove" style="stroke:#181818;stroke-width:1.0;"/><polygon fill="#181818" points="554.001,505.729,552.8737,495.9449,551.4607,501.4224,545.9831,500.0094,554.001,505.729" style="stroke:#181818;stroke-width:1.0;"/></g><!--link Mediator to fetch--><g id="link_Mediator_fetch"><path d="M388.445,496.947 C403.176,485.773 423.752,472.457 444.5,466.5 C452.189,464.292 455.195,463.239 462.5,466.5 C480.471,474.522 491.0606,488.8771 497.9526,500.5611 " fill="none" id="Mediator-to-fetch" style="stroke:#181818;stroke-width:1.0;"/><polygon fill="#181818" points="501.001,505.729,499.8737,495.9449,498.4607,501.4224,492.9831,500.0094,501.001,505.729" style="stroke:#181818;stroke-width:1.0;"/></g><!--link OBJParser to parse--><g id="link_OBJParser_parse"><path d="M237.195,515 C248.717,515 260.238,515 271.76,515 " fill="none" id="OBJParser-parse" style="stroke:#181818;stroke-width:1.0;"/></g><!--reverse link parse to Mediator--><g id="link_parse_Mediator"><path d="M296.07,515 C307.69,515 313.309,515 324.929,515 " fill="none" id="parse-backto-Mediator" style="stroke:#181818;stroke-width:1.0;"/><polygon fill="#181818" points="290.07,515,299.07,519,295.07,515,299.07,511,290.07,515" style="stroke:#181818;stroke-width:1.0;"/></g><!--link Raytracer to mediateResourceFetch--><g id="link_Raytracer_mediateResourceFetch"><path d="M327.195,731 C338.717,731 344.238,731 355.76,731 " fill="none" id="Raytracer-to-mediateResourceFetch" style="stroke:#181818;stroke-width:1.0;"/><polygon fill="#181818" points="361.76,731,352.76,727,356.76,731,352.76,735,361.76,731" style="stroke:#181818;stroke-width:1.0;"/></g><!--link renderImage to Raytracer--><g id="link_renderImage_Raytracer"><path d="M281.078,632.318 C281.241,649.595 281.62,689.6773 281.837,712.7703 " fill="none" id="renderImage-Raytracer" style="stroke:#181818;stroke-width:1.0;"/></g><!--link Mediator to renderImage--><g id="link_Mediator_renderImage"><path d="M353.183,533.031 C334.38,556.206 305.2633,592.0947 291.3213,609.2787 " fill="none" id="Mediator-to-renderImage" style="stroke:#181818;stroke-width:1.0;"/><polygon fill="#181818" points="287.541,613.938,296.3177,609.4692,290.6912,610.0552,290.1052,604.4288,287.541,613.938" style="stroke:#181818;stroke-width:1.0;"/></g><!--SRC=[XLBBRi8m43p7Nx62SrhrcWC7rA2seY8YL3sRP0akVaIEGK9L_xqR9n2IfktDdXtFpenS7OGkkUKACgDAer6xr9qbmb791yQk8CIvSCR2T2cAlPlB8pAcJOumcVFiW3gVm2SBElexRbEq9xGiIDus48Qto6EyZ3Vn04nMwP3Nxhoxcm69H62s7_VAoTwWqHgVrP8H1TCxKR3Wrjuhve8JZGNAdt2DbJdQ35C2UO6raLyvQrJcnEMVd0MwR3_AU5QalwR6q0fTz2dNx0JFODnQL7Vn3xLr6BNjC81HUjzAvFjYHEvw6kn-GbcI1A_g0H4hWdrNpTNMQs_kkqi9pVMI4yY1Vpd0ckS3q6iGrhErchyat5RqHm3A-W2Xn9qBUuDEnSzc3NEGZv-TvHbbcYP27sZM8JzhNRHUhA_Cj-VJNPxqblf0Lnxx-WO0]--></g></svg>