<?xml version="1.0" encoding="us-ascii" standalone="no"?><svg xmlns="http://www.w3.org/2000/svg" xmlns:xlink="http://www.w3.org/1999/xlink" contentStyleType="text/css" height="811px" preserveAspectRatio="none" style="width:1678px;height:811px;background:#FFFFFF;" version="1.1" viewBox="0 0 1678 811" width="1678px" zoomAndPan="magnify"><defs/><g><text fill="#000000" font-family="sans-serif" font-size="14" font-weight="bold" lengthAdjust="spacing" textLength="268" x="706.5" y="27.9951">Sequence Diagram: Scene Render</text><rect fill="#FFFFFF" height="619.5234" style="stroke:#181818;stroke-width:1.0;" width="10" x="158" y="121.7266"/><rect fill="#FFFFFF" height="476.9922" style="stroke:#181818;stroke-width:1.0;" width="10" x="435" y="192.9922"/><rect fill="#FFFFFF" height="418.7266" style="stroke:#181818;stroke-width:1.0;" width="10" x="650" y="222.125"/><rect fill="#FFFFFF" height="29.1328" style="stroke:#181818;stroke-width:1.0;" width="10" x="886" y="251.2578"/><rect fill="#FFFFFF" height="29.1328" style="stroke:#181818;stroke-width:1.0;" width="10" x="1020" y="309.5234"/><rect fill="#FFFFFF" height="201.7969" style="stroke:#181818;stroke-width:1.0;" width="10" x="1148" y="367.7891"/><rect fill="#FFFFFF" height="72.2656" style="stroke:#181818;stroke-width:1.0;" width="10" x="1428" y="439.0547"/><rect fill="#FFFFFF" height="29.1328" style="stroke:#181818;stroke-width:1.0;" width="10" x="1607" y="468.1875"/><line style="stroke:#181818;stroke-width:0.5;stroke-dasharray:5.0,5.0;" x1="34" x2="34" y1="90.5938" y2="759.25"/><line style="stroke:#181818;stroke-width:0.5;stroke-dasharray:5.0,5.0;" x1="162.5" x2="162.5" y1="90.5938" y2="759.25"/><line style="stroke:#181818;stroke-width:0.5;stroke-dasharray:5.0,5.0;" x1="439.5" x2="439.5" y1="90.5938" y2="759.25"/><line style="stroke:#181818;stroke-width:0.5;stroke-dasharray:5.0,5.0;" x1="654.5" x2="654.5" y1="90.5938" y2="759.25"/><line style="stroke:#181818;stroke-width:0.5;stroke-dasharray:5.0,5.0;" x1="891" x2="891" y1="90.5938" y2="759.25"/><line style="stroke:#181818;stroke-width:0.5;stroke-dasharray:5.0,5.0;" x1="1025" x2="1025" y1="90.5938" y2="759.25"/><line style="stroke:#181818;stroke-width:0.5;stroke-dasharray:5.0,5.0;" x1="1153" x2="1153" y1="90.5938" y2="759.25"/><line style="stroke:#181818;stroke-width:0.5;stroke-dasharray:5.0,5.0;" x1="1433" x2="1433" y1="90.5938" y2="759.25"/><line style="stroke:#181818;stroke-width:0.5;stroke-dasharray:5.0,5.0;" x1="1612" x2="1612" y1="90.5938" y2="759.25"/><rect fill="#E2E2F0" height="30.2969" rx="2.5" ry="2.5" style="stroke:#181818;stroke-width:0.5;" width="58" x="5" y="59.2969"/><text fill="#000000" font-family="sans-serif" font-size="14" lengthAdjust="spacing" textLength="44" x="12" y="79.292">Editor</text><rect fill="#E2E2F0" height="30.2969" rx="2.5" ry="2.5" style="stroke:#181818;stroke-width:0.5;" width="58" x="5" y="758.25"/><text fill="#000000" font-family="sans-serif" font-size="14" lengthAdjust="spacing" textLength="44" x="12" y="778.2451">Editor</text><rect fill="#E2E2F0" height="30.2969" rx="2.5" ry="2.5" style="stroke:#181818;stroke-width:0.5;" width="127" x="99.5" y="59.2969"/><text fill="#000000" font-family="sans-serif" font-size="14" lengthAdjust="spacing" textLength="113" x="106.5" y="79.292">Backend Server</text><rect fill="#E2E2F0" height="30.2969" rx="2.5" ry="2.5" style="stroke:#181818;stroke-width:0.5;" width="127" x="99.5" y="758.25"/><text fill="#000000" font-family="sans-serif" font-size="14" lengthAdjust="spacing" textLength="113" x="106.5" y="778.2451">Backend Server</text><rect fill="#E2E2F0" height="30.2969" rx="2.5" ry="2.5" style="stroke:#181818;stroke-width:0.5;" width="117" x="381.5" y="59.2969"/><text fill="#000000" font-family="sans-serif" font-size="14" lengthAdjust="spacing" textLength="103" x="388.5" y="79.292">RoyalMediator</text><rect fill="#E2E2F0" height="30.2969" rx="2.5" ry="2.5" style="stroke:#181818;stroke-width:0.5;" width="117" x="381.5" y="758.25"/><text fill="#000000" font-family="sans-serif" font-size="14" lengthAdjust="spacing" textLength="103" x="388.5" y="778.2451">RoyalMediator</text><rect fill="#E2E2F0" height="30.2969" rx="2.5" ry="2.5" style="stroke:#181818;stroke-width:0.5;" width="121" x="594.5" y="59.2969"/><text fill="#000000" font-family="sans-serif" font-size="14" lengthAdjust="spacing" textLength="107" x="601.5" y="79.292">OpenCLFacade</text><rect fill="#E2E2F0" height="30.2969" rx="2.5" ry="2.5" style="stroke:#181818;stroke-width:0.5;" width="121" x="594.5" y="758.25"/><text fill="#000000" font-family="sans-serif" font-size="14" lengthAdjust="spacing" textLength="107" x="601.5" y="778.2451">OpenCLFacade</text><rect fill="#E2E2F0" height="30.2969" rx="2.5" ry="2.5" style="stroke:#181818;stroke-width:0.5;" width="106" x="838" y="59.2969"/><text fill="#000000" font-family="sans-serif" font-size="14" lengthAdjust="spacing" textLength="92" x="845" y="79.292">ConfigParser</text><rect fill="#E2E2F0" height="30.2969" rx="2.5" ry="2.5" style="stroke:#181818;stroke-width:0.5;" width="106" x="838" y="758.25"/><text fill="#000000" font-family="sans-serif" font-size="14" lengthAdjust="spacing" textLength="92" x="845" y="778.2451">ConfigParser</text><rect fill="#E2E2F0" height="30.2969" rx="2.5" ry="2.5" style="stroke:#181818;stroke-width:0.5;" width="142" x="954" y="59.2969"/><text fill="#000000" font-family="sans-serif" font-size="14" lengthAdjust="spacing" textLength="128" x="961" y="79.292">PrecomputeLayer</text><rect fill="#E2E2F0" height="30.2969" rx="2.5" ry="2.5" style="stroke:#181818;stroke-width:0.5;" width="142" x="954" y="758.25"/><text fill="#000000" font-family="sans-serif" font-size="14" lengthAdjust="spacing" textLength="128" x="961" y="778.2451">PrecomputeLayer</text><rect fill="#E2E2F0" height="30.2969" rx="2.5" ry="2.5" style="stroke:#181818;stroke-width:0.5;" width="94" x="1106" y="59.2969"/><text fill="#000000" font-family="sans-serif" font-size="14" lengthAdjust="spacing" textLength="80" x="1113" y="79.292">RTManager</text><rect fill="#E2E2F0" height="30.2969" rx="2.5" ry="2.5" style="stroke:#181818;stroke-width:0.5;" width="94" x="1106" y="758.25"/><text fill="#000000" font-family="sans-serif" font-size="14" lengthAdjust="spacing" textLength="80" x="1113" y="778.2451">RTManager</text><rect fill="#E2E2F0" height="30.2969" rx="2.5" ry="2.5" style="stroke:#181818;stroke-width:0.5;" width="122" x="1372" y="59.2969"/><text fill="#000000" font-family="sans-serif" font-size="14" lengthAdjust="spacing" textLength="108" x="1379" y="79.292">KernelManager</text><rect fill="#E2E2F0" height="30.2969" rx="2.5" ry="2.5" style="stroke:#181818;stroke-width:0.5;" width="122" x="1372" y="758.25"/><text fill="#000000" font-family="sans-serif" font-size="14" lengthAdjust="spacing" textLength="108" x="1379" y="778.2451">KernelManager</text><text fill="#000000" font-family="sans-serif" font-size="14" lengthAdjust="spacing" textLength="124" x="1547" y="87.292">PathtracerKernel</text><ellipse cx="1612" cy="58.2969" fill="#E2E2F0" rx="12" ry="12" style="stroke:#181818;stroke-width:0.5;"/><line style="stroke:#181818;stroke-width:0.5;" x1="1600" x2="1624" y1="72.2969" y2="72.2969"/><text fill="#000000" font-family="sans-serif" font-size="14" lengthAdjust="spacing" textLength="124" x="1547" y="771.2451">PathtracerKernel</text><ellipse cx="1612" cy="790.5469" fill="#E2E2F0" rx="12" ry="12" style="stroke:#181818;stroke-width:0.5;"/><line style="stroke:#181818;stroke-width:0.5;" x1="1600" x2="1624" y1="804.5469" y2="804.5469"/><rect fill="#FFFFFF" height="619.5234" style="stroke:#181818;stroke-width:1.0;" width="10" x="158" y="121.7266"/><rect fill="#FFFFFF" height="476.9922" style="stroke:#181818;stroke-width:1.0;" width="10" x="435" y="192.9922"/><rect fill="#FFFFFF" height="418.7266" style="stroke:#181818;stroke-width:1.0;" width="10" x="650" y="222.125"/><rect fill="#FFFFFF" height="29.1328" style="stroke:#181818;stroke-width:1.0;" width="10" x="886" y="251.2578"/><rect fill="#FFFFFF" height="29.1328" style="stroke:#181818;stroke-width:1.0;" width="10" x="1020" y="309.5234"/><rect fill="#FFFFFF" height="201.7969" style="stroke:#181818;stroke-width:1.0;" width="10" x="1148" y="367.7891"/><rect fill="#FFFFFF" height="72.2656" style="stroke:#181818;stroke-width:1.0;" width="10" x="1428" y="439.0547"/><rect fill="#FFFFFF" height="29.1328" style="stroke:#181818;stroke-width:1.0;" width="10" x="1607" y="468.1875"/><polygon fill="#181818" points="146,117.7266,156,121.7266,146,125.7266,150,121.7266" style="stroke:#181818;stroke-width:1.0;"/><line style="stroke:#181818;stroke-width:1.0;" x1="34" x2="152" y1="121.7266" y2="121.7266"/><text fill="#000000" font-family="sans-serif" font-size="13" lengthAdjust="spacing" textLength="83" x="41" y="116.6606">POST[config]</text><line style="stroke:#181818;stroke-width:1.0;" x1="168" x2="210" y1="150.8594" y2="150.8594"/><line style="stroke:#181818;stroke-width:1.0;" x1="210" x2="210" y1="150.8594" y2="163.8594"/><line style="stroke:#181818;stroke-width:1.0;" x1="169" x2="210" y1="163.8594" y2="163.8594"/><polygon fill="#181818" points="179,159.8594,169,163.8594,179,167.8594,175,163.8594" style="stroke:#181818;stroke-width:1.0;"/><text fill="#000000" font-family="sans-serif" font-size="13" lengthAdjust="spacing" textLength="250" x="175" y="145.7935">retrieve file content from request body</text><polygon fill="#181818" points="423,188.9922,433,192.9922,423,196.9922,427,192.9922" style="stroke:#181818;stroke-width:1.0;"/><line style="stroke:#181818;stroke-width:1.0;" x1="168" x2="429" y1="192.9922" y2="192.9922"/><text fill="#000000" font-family="sans-serif" font-size="13" lengthAdjust="spacing" textLength="183" x="175" y="187.9263">rm.initiateRaytracing(config)</text><polygon fill="#181818" points="638,218.125,648,222.125,638,226.125,642,222.125" style="stroke:#181818;stroke-width:1.0;"/><line style="stroke:#181818;stroke-width:1.0;" x1="445" x2="644" y1="222.125" y2="222.125"/><text fill="#000000" font-family="sans-serif" font-size="13" lengthAdjust="spacing" textLength="131" x="452" y="217.0591">renderImage(config)</text><polygon fill="#181818" points="874,247.2578,884,251.2578,874,255.2578,878,251.2578" style="stroke:#181818;stroke-width:1.0;"/><line style="stroke:#181818;stroke-width:1.0;" x1="660" x2="880" y1="251.2578" y2="251.2578"/><text fill="#000000" font-family="sans-serif" font-size="13" lengthAdjust="spacing" textLength="104" x="667" y="246.1919">cp.parse(config)</text><polygon fill="#181818" points="671,276.3906,661,280.3906,671,284.3906,667,280.3906" style="stroke:#181818;stroke-width:1.0;"/><line style="stroke:#181818;stroke-width:1.0;stroke-dasharray:2.0,2.0;" x1="665" x2="890" y1="280.3906" y2="280.3906"/><text fill="#000000" font-family="sans-serif" font-size="13" lengthAdjust="spacing" textLength="130" x="677" y="275.3247">parsed Scene object</text><polygon fill="#181818" points="1008,305.5234,1018,309.5234,1008,313.5234,1012,309.5234" style="stroke:#181818;stroke-width:1.0;"/><line style="stroke:#181818;stroke-width:1.0;" x1="660" x2="1014" y1="309.5234" y2="309.5234"/><text fill="#000000" font-family="sans-serif" font-size="13" lengthAdjust="spacing" textLength="114" x="667" y="304.4575">pl.operate(Scene)</text><polygon fill="#181818" points="671,334.6563,661,338.6563,671,342.6563,667,338.6563" style="stroke:#181818;stroke-width:1.0;"/><line style="stroke:#181818;stroke-width:1.0;stroke-dasharray:2.0,2.0;" x1="665" x2="1024" y1="338.6563" y2="338.6563"/><text fill="#000000" font-family="sans-serif" font-size="13" lengthAdjust="spacing" textLength="173" x="677" y="333.5903">preprocessed Scene object</text><polygon fill="#181818" points="1136,363.7891,1146,367.7891,1136,371.7891,1140,367.7891" style="stroke:#181818;stroke-width:1.0;"/><line style="stroke:#181818;stroke-width:1.0;" x1="660" x2="1142" y1="367.7891" y2="367.7891"/><text fill="#000000" font-family="sans-serif" font-size="13" lengthAdjust="spacing" textLength="191" x="667" y="362.7231">rtmanager.startKernel(Scene)</text><line style="stroke:#181818;stroke-width:1.0;" x1="1158" x2="1200" y1="396.9219" y2="396.9219"/><line style="stroke:#181818;stroke-width:1.0;" x1="1200" x2="1200" y1="396.9219" y2="409.9219"/><line style="stroke:#181818;stroke-width:1.0;" x1="1159" x2="1200" y1="409.9219" y2="409.9219"/><polygon fill="#181818" points="1169,405.9219,1159,409.9219,1169,413.9219,1165,409.9219" style="stroke:#181818;stroke-width:1.0;"/><text fill="#000000" font-family="sans-serif" font-size="13" lengthAdjust="spacing" textLength="156" x="1165" y="391.856">extract data from scene</text><polygon fill="#181818" points="1416,435.0547,1426,439.0547,1416,443.0547,1420,439.0547" style="stroke:#181818;stroke-width:1.0;"/><line style="stroke:#181818;stroke-width:1.0;" x1="1158" x2="1422" y1="439.0547" y2="439.0547"/><text fill="#000000" font-family="sans-serif" font-size="13" lengthAdjust="spacing" textLength="251" x="1165" y="433.9888">kmanager.executeOpenCL(SceneData)</text><polygon fill="#181818" points="1595,464.1875,1605,468.1875,1595,472.1875,1599,468.1875" style="stroke:#181818;stroke-width:1.0;"/><line style="stroke:#181818;stroke-width:1.0;" x1="1438" x2="1601" y1="468.1875" y2="468.1875"/><text fill="#000000" font-family="sans-serif" font-size="13" lengthAdjust="spacing" textLength="107" x="1445" y="463.1216">start pathtracing</text><polygon fill="#181818" points="1449,493.3203,1439,497.3203,1449,501.3203,1445,497.3203" style="stroke:#181818;stroke-width:1.0;"/><line style="stroke:#181818;stroke-width:1.0;stroke-dasharray:2.0,2.0;" x1="1443" x2="1611" y1="497.3203" y2="497.3203"/><text fill="#000000" font-family="sans-serif" font-size="13" lengthAdjust="spacing" textLength="145" x="1455" y="492.2544">write output pixel data</text><polygon fill="#181818" points="671,507.3203,661,511.3203,671,515.3203,667,511.3203" style="stroke:#181818;stroke-width:1.0;"/><line style="stroke:#181818;stroke-width:1.0;stroke-dasharray:2.0,2.0;" x1="665" x2="1432" y1="511.3203" y2="511.3203"/><polygon fill="#181818" points="1136,536.4531,1146,540.4531,1136,544.4531,1140,540.4531" style="stroke:#181818;stroke-width:1.0;"/><line style="stroke:#181818;stroke-width:1.0;" x1="660" x2="1142" y1="540.4531" y2="540.4531"/><text fill="#000000" font-family="sans-serif" font-size="13" lengthAdjust="spacing" textLength="82" x="667" y="535.3872">rt.getPixels()</text><polygon fill="#181818" points="671,565.5859,661,569.5859,671,573.5859,667,569.5859" style="stroke:#181818;stroke-width:1.0;"/><line style="stroke:#181818;stroke-width:1.0;stroke-dasharray:2.0,2.0;" x1="665" x2="1152" y1="569.5859" y2="569.5859"/><text fill="#000000" font-family="sans-serif" font-size="13" lengthAdjust="spacing" textLength="109" x="677" y="564.52">output pixel data</text><line style="stroke:#181818;stroke-width:1.0;stroke-dasharray:2.0,2.0;" x1="660" x2="702" y1="598.7188" y2="598.7188"/><line style="stroke:#181818;stroke-width:1.0;stroke-dasharray:2.0,2.0;" x1="702" x2="702" y1="598.7188" y2="611.7188"/><line style="stroke:#181818;stroke-width:1.0;stroke-dasharray:2.0,2.0;" x1="661" x2="702" y1="611.7188" y2="611.7188"/><polygon fill="#181818" points="671,607.7188,661,611.7188,671,615.7188,667,611.7188" style="stroke:#181818;stroke-width:1.0;"/><text fill="#000000" font-family="sans-serif" font-size="13" lengthAdjust="spacing" textLength="212" x="667" y="593.6528">pack pixel data into Image object</text><polygon fill="#181818" points="456,636.8516,446,640.8516,456,644.8516,452,640.8516" style="stroke:#181818;stroke-width:1.0;"/><line style="stroke:#181818;stroke-width:1.0;stroke-dasharray:2.0,2.0;" x1="450" x2="654" y1="640.8516" y2="640.8516"/><text fill="#000000" font-family="sans-serif" font-size="13" lengthAdjust="spacing" textLength="181" x="462" y="635.7856">Image object with pixel data</text><polygon fill="#181818" points="179,665.9844,169,669.9844,179,673.9844,175,669.9844" style="stroke:#181818;stroke-width:1.0;"/><line style="stroke:#181818;stroke-width:1.0;stroke-dasharray:2.0,2.0;" x1="173" x2="439" y1="669.9844" y2="669.9844"/><text fill="#000000" font-family="sans-serif" font-size="13" lengthAdjust="spacing" textLength="40" x="185" y="664.9185">Image</text><line style="stroke:#181818;stroke-width:1.0;stroke-dasharray:2.0,2.0;" x1="168" x2="210" y1="699.1172" y2="699.1172"/><line style="stroke:#181818;stroke-width:1.0;stroke-dasharray:2.0,2.0;" x1="210" x2="210" y1="699.1172" y2="712.1172"/><line style="stroke:#181818;stroke-width:1.0;stroke-dasharray:2.0,2.0;" x1="169" x2="210" y1="712.1172" y2="712.1172"/><polygon fill="#181818" points="179,708.1172,169,712.1172,179,716.1172,175,712.1172" style="stroke:#181818;stroke-width:1.0;"/><text fill="#000000" font-family="sans-serif" font-size="13" lengthAdjust="spacing" textLength="253" x="175" y="694.0513">include Image object in response object</text><polygon fill="#181818" points="45,737.25,35,741.25,45,745.25,41,741.25" style="stroke:#181818;stroke-width:1.0;"/><line style="stroke:#181818;stroke-width:1.0;stroke-dasharray:2.0,2.0;" x1="39" x2="162" y1="741.25" y2="741.25"/><text fill="#000000" font-family="sans-serif" font-size="13" lengthAdjust="spacing" textLength="100" x="51" y="736.1841">HTTP Response</text><!--SRC=[TPJ1Rjim38RlVWgYfmI5ym0vzB1smuQrg97aDkoWoeohsPPKcccJjnybEfwDeJS3_wTVv4_AxBX3sEFR2Rr5U72c8TDlOM_H8-pGrqX5DCJEkcWymzVQSI0m0o0iX9ilnhR2Yncz8zqaPCYVIsuNBgPxmjgPqOVw9V0SqTy_VZFMr9XqsnsNm7tmHzTKXiG-0t6fLuGszF74-6WkYiHkMSFXoNZJg4QyFFuJoMCt0zg-GC-EBr0PVcKo5acXhEQlea0exwuDtzx25ghd_U6NpRN-BaPXGhP0oEJm7U7eP0B2iLm2HmgzI3AEWU4br9VPIGag6rE_STwn18WxSqdrED-izAPr8PImAJI5ymX_zDBCX2GnCL4H6pSnXVbFZr2E7cKfG5RhSIV2on-qVFM8dNh4RXCYafIqojYw46LfGXWfM1m-iv8vQCNSQ_QRWMKiclJLLI15ju3dr3f3RTXeRaDYHgGTmsglPdX6AokXswLs3t9oNRGvC1sZdidtIjSwR0ct6DLIZNC_7-HOMZYnB1f4TnOvLPBjfhvdlQN6DWrobT1XfQtC0_hVIYL5qXHiErF1UGwG1xi8KXSbEyv5-73yEZSdhVEwNXC_BTniLvsttKbUuyBGULck8GO_J0NCZifpABVm_N2ev2-Yr5y0]--></g></svg>
